#!OML:ASF H:\Terrain\Patient Classification 1\Walking\liu\liu.ASF
:FULLY-SPECIFIED
:DEGREES
356
root 13.903996 25.618801 21.252449 9.886350 12.793079 -3.270405
lowerback -9.338055 -3.262185 -1.422091
upperback -2.195430 -4.353765 4.328775
thorax 3.263505 -2.187390 4.910490
lowerneck -29.276100 -9.023760 -19.985100
upperneck 30.687899 -11.810895 21.162451
head 16.448250 -4.579305 9.263144
rclavicle 0.000000 0.000000
rhumerus -62.483849 19.077900 -127.345947
rradius 58.963200
rwrist -34.123802
rhand -45.853199 -42.439350
rfingers 10.687531
rthumb -5.800095 -87.356400
lclavicle 0.000000 0.000000
lhumerus -56.953049 -32.160000 149.516388
lradius 37.910252
lwrist 10.830840
lhand -15.109350 -29.650349
lfingers 10.687531
lthumb 23.870100 14.398905
rfemur -34.609650 6.320175 40.370697
rtibia 49.160248
rfoot -21.735899 1.982370
rtoes -16.809450
lfemur -24.586048 12.020609 -21.383551
ltibia 96.331352
lfoot -6.882225 16.766100
ltoes -7.348965
357
root 13.898701 25.630352 21.430500 9.788085 12.307815 -3.330000
lowerback -9.204975 -3.006330 -1.334383
upperback -1.975230 -4.021155 4.273125
thorax 3.387930 -2.024055 4.832040
lowerneck -29.753250 -9.112246 -19.931999
upperneck 30.772800 -11.897055 21.138451
head 16.582350 -4.598415 9.231675
rclavicle 0.000000 -0.000000
rhumerus -61.393196 20.206348 -127.535706
rradius 59.386650
rwrist -34.227299
rhand -45.132000 -39.319500
rfingers 10.687531
rthumb -5.103720 -84.248398
lclavicle 0.000000 -0.000000
lhumerus -58.097847 -33.595497 149.983643
lradius 38.741550
lwrist 13.183260
lhand -17.609400 -30.023100
lfingers 10.687531
lthumb 21.462000 14.207489
rfemur -33.633003 6.927585 40.565548
rtibia 48.772648
rfoot -22.254450 1.792980
rtoes -18.406799
lfemur -26.704050 11.817600 -21.828899
ltibia 96.906601
lfoot -8.506035 16.161150
ltoes -6.411855
358
root 13.901610 25.638451 21.619650 9.634560 11.859255 -3.294855
lowerback -9.006180 -2.704740 -1.223637
upperback -1.900515 -3.623955 4.170465
thorax 3.319515 -1.824840 4.701360
lowerneck -29.694748 -9.176970 -20.069250
upperneck 30.865948 -11.963685 21.141750
head 16.622700 -4.641120 9.249675
rclavicle 0.000000 0.000000
rhumerus -60.898201 21.093300 -127.660797
rradius 60.111900
rwrist -34.436401
rhand -45.284252 -40.746151
rfingers 10.687531
rthumb -5.250660 -85.672653
lclavicle 0.000000 0.000000
lhumerus -59.479351 -33.893547 150.103500
lradius 39.693298
lwrist 13.930050
lhand -20.678850 -31.023750
lfingers 10.687531
lthumb 18.503399 13.400475
rfemur -32.586899 7.206660 40.673401
rtibia 48.398552
rfoot -22.639799 1.880130
rtoes -18.655800
lfemur -28.496101 11.508030 -22.544550
ltibia 97.201050
lfoot -9.918720 16.199400
ltoes -7.132860
359
root 13.898581 25.634251 21.794849 9.612525 11.485020 -3.618510
lowerback -8.701410 -2.471265 -0.934680
upperback -2.154645 -3.324225 4.254000
thorax 2.861460 -1.667565 4.661640
lowerneck -29.098349 -9.117075 -20.282249
upperneck 30.885601 -11.935966 21.322350
head 16.528950 -4.648140 9.365505
rclavicle -0.000000 -0.000000
rhumerus -60.763351 21.747749 -127.766541
rradius 60.707550
rwrist -34.333351
rhand -45.816151 -41.997601
rfingers 10.687531
rthumb -5.764320 -86.915253
lclavicle -0.000000 -0.000000
lhumerus -60.964951 -33.240601 149.983643
lradius 40.254002
lwrist 13.588036
lhand -21.977249 -31.900949
lfingers 10.687531
lthumb 17.251200 12.595785
rfemur -31.793999 7.472610 41.200203
rtibia 48.037949
rfoot -23.022449 1.931295
rtoes -18.802200
lfemur -30.599699 11.439465 -22.762350
ltibia 97.353302
lfoot -10.858470 16.395300
ltoes -7.787595
360
root 13.902256 25.639200 21.963150 9.677130 11.170680 -3.775050
lowerback -8.670750 -2.284395 -0.804410
upperback -2.028795 -3.086745 4.313475
thorax 2.957445 -1.550325 4.667160
lowerneck -29.379599 -9.145411 -20.319000
upperneck 30.922800 -11.932200 21.322500
head 16.598101 -4.638390 9.373125
rclavicle 0.000000 -0.000000
rhumerus -59.599800 22.496550 -127.668442
rradius 60.973198
rwrist -34.272900
rhand -45.573151 -39.280052
rfingers 10.687531
rthumb -5.529645 -84.201904
lclavicle 0.000000 -0.000000
lhumerus -61.604546 -33.025650 149.834854
lradius 40.499100
lwrist 14.178196
lhand -22.324501 -32.698349
lfingers 10.687531
lthumb 16.916401 11.816925
rfemur -30.949499 7.751310 41.474548
rtibia 47.718300
rfoot -23.704500 2.202990
rtoes -18.457500
lfemur -32.859749 11.161770 -23.119350
ltibia 97.325851
lfoot -11.737110 16.362450
ltoes -6.305985
361
root 13.916775 25.649700 22.156349 9.700470 10.932045 -3.433230
lowerback -8.969070 -2.081460 -0.988161
upperback -1.533045 -2.815620 4.176030
thorax 3.620175 -1.425522 4.637070
lowerneck -30.575701 -9.281715 -19.937401
upperneck 31.296749 -11.958466 20.653500
head 16.919701 -4.647900 9.051405
rclavicle 0.000000 0.000000
rhumerus -57.997501 23.385900 -127.429657
rradius 61.569752
rwrist -34.621048
rhand -45.113400 -38.338501
rfingers 10.687531
rthumb -5.085675 -83.267700
lclavicle 0.000000 0.000000
lhumerus -61.930801 -33.412350 149.815048
lradius 41.018101
lwrist 15.733351
lhand -22.987350 -33.284401
lfingers 10.687531
lthumb 16.276951 11.265015
rfemur -29.924850 7.736490 41.209198
rtibia 47.404350
rfoot -24.396900 2.519250
rtoes -18.590250
lfemur -34.837349 10.535220 -24.065849
ltibia 97.106552
lfoot -12.827579 16.446899
ltoes -5.598450
362
root 13.919235 25.639500 22.341900 9.846689 10.616325 -3.211155
lowerback -8.817060 -2.045565 -1.195930
upperback -2.086920 -2.738475 4.023990
thorax 2.961165 -1.377131 4.612485
lowerneck -29.369400 -8.911095 -19.349850
upperneck 31.639349 -11.641455 20.047050
head 16.703701 -4.567350 8.786955
rclavicle 0.000000 0.000000
rhumerus -58.561649 24.482700 -128.050049
rradius 62.636398
rwrist -34.904701
rhand -45.282150 -39.626251
rfingers 10.687531
rthumb -5.248680 -84.552750
lclavicle 0.000000 0.000000
lhumerus -64.198044 -32.416801 149.688446
lradius 41.846848
lwrist 16.509300
lhand -23.045250 -33.257248
lfingers 10.687531
lthumb 16.221149 11.295210
rfemur -29.199299 7.943595 41.126701
rtibia 47.141701
rfoot -24.950550 2.365605
rtoes -19.562698
lfemur -36.962097 10.109880 -24.829952
ltibia 96.858902
lfoot -14.058300 16.583401
ltoes -7.335990
363
root 13.922340 25.625549 22.509750 9.957090 10.201860 -3.481665
lowerback -8.533051 -1.821120 -0.826311
upperback -2.376735 -2.451525 3.962625
thorax 2.475045 -1.225647 4.371150
lowerneck -29.151749 -8.937525 -19.272900
upperneck 31.880398 -11.774625 20.113350
head 16.771650 -4.621035 8.787720
rclavicle 0.000000 -0.000000
rhumerus -58.361549 24.970350 -128.304596
rradius 63.423901
rwrist -34.898548
rhand -45.700050 -40.038750
rfingers 10.687531
rthumb -5.652180 -84.958496
lclavicle 0.000000 -0.000000
lhumerus -65.398949 -31.568550 148.994400
lradius 42.289501
lwrist 16.139549
lhand -21.963900 -33.066750
lfingers 10.687531
lthumb 17.264101 11.429280
rfemur -28.466251 8.395305 41.518349
rtibia 46.990051
rfoot -25.916851 2.383950
rtoes -21.336300
lfemur -39.112801 10.011300 -25.026901
ltibia 96.526794
lfoot -15.086100 16.614599
ltoes -8.485140
364
root 13.926991 25.621050 22.690800 9.781771 9.691545 -3.757995
lowerback -8.514734 -1.597305 -0.526160
upperback -2.136960 -2.176065 3.993540
thorax 2.689785 -1.090629 4.251960
lowerneck -29.889450 -9.005580 -18.754950
upperneck 32.387249 -11.806680 19.391550
head 17.048700 -4.646190 8.427885
rclavicle -0.000000 -0.000000
rhumerus -57.339005 25.625851 -128.266647
rradius 63.846302
rwrist -34.788300
rhand -45.668098 -41.262901
rfingers 10.687531
rthumb -5.621415 -86.182953
lclavicle -0.000000 -0.000000
lhumerus -65.773499 -30.781200 148.192047
lradius 42.489601
lwrist 15.719550
lhand -21.026701 -33.194851
lfingers 10.687531
lthumb 18.167850 11.249340
rfemur -27.540150 8.902530 41.930702
rtibia 46.941002
rfoot -26.692949 2.524680
rtoes -22.513050
lfemur -40.797447 10.028115 -25.153799
ltibia 95.953796
lfoot -16.188301 16.510500
ltoes -8.125860
365
root 13.927410 25.611599 22.878450 9.557039 9.219914 -3.690660
lowerback -8.899364 -1.376745 -0.726012
upperback -1.343496 -1.893705 4.076175
thorax 3.713370 -0.965175 4.460940
lowerneck -31.359150 -9.240150 -18.601349
upperneck 32.737202 -11.880526 18.768600
head 17.438850 -4.686495 8.150249
rclavicle -0.000000 -0.000000
rhumerus -55.147648 26.216549 -127.612045
rradius 63.832199
rwrist -34.690800
rhand -44.920502 -43.049702
rfingers 10.687531
rthumb -4.899390 -87.981750
lclavicle -0.000000 -0.000000
lhumerus -65.277901 -30.284252 147.695557
lradius 42.647850
lwrist 16.338600
lhand -21.031799 -33.370800
lfingers 10.687531
lthumb 18.163050 11.073630
rfemur -26.622150 9.043320 42.050098
rtibia 46.842449
rfoot -26.691301 2.795595
rtoes -20.097000
lfemur -42.303600 9.814890 -25.585951
ltibia 95.182053
lfoot -18.063749 16.503899
ltoes -7.441620
366
root 13.932570 25.603050 23.060101 9.518070 8.816655 -3.352875
lowerback -9.025575 -1.184160 -1.102226
upperback -1.018002 -1.618950 4.015530
thorax 4.110120 -0.837925 4.630530
lowerneck -30.888752 -9.283410 -19.661850
upperneck 31.878750 -11.920230 20.093700
head 17.148899 -4.658280 8.813849
rclavicle -0.000000 -0.000000
rhumerus -53.674355 26.498699 -127.151253
rradius 63.801147
rwrist -34.481548
rhand -44.374050 -42.691650
rfingers 10.687531
rthumb -4.371645 -87.631500
lclavicle -0.000000 -0.000000
lhumerus -65.590950 -29.969700 147.507141
lradius 42.841499
lwrist 17.107950
lhand -21.169500 -33.445950
lfingers 10.687531
lthumb 18.030300 11.006355
rfemur -25.697250 9.001935 41.799000
rtibia 46.646400
rfoot -26.802750 3.139620
rtoes -17.475149
lfemur -43.960953 9.510330 -26.341049
ltibia 94.248001
lfoot -20.203951 16.918200
ltoes -5.636250
367
root 13.938900 25.591501 23.226299 9.590175 8.367195 -3.857280
lowerback -8.752650 -0.910602 -0.556732
upperback -1.351653 -1.281018 4.072215
thorax 3.585885 -0.656823 4.412010
lowerneck -29.203800 -9.048855 -20.408251
upperneck 30.894302 -11.784435 21.339451
head 16.533751 -4.582020 9.420120
rclavicle 0.000000 -0.000000
rhumerus -53.715149 26.634150 -127.204651
rradius 64.476753
rwrist -34.301552
rhand -44.983650 -39.720001
rfingers 10.687531
rthumb -4.960365 -84.651154
lclavicle 0.000000 -0.000000
lhumerus -67.096649 -29.823601 147.658203
lradius 43.163250
lwrist 18.225149
lhand -21.288450 -33.402298
lfingers 10.687531
lthumb 17.915400 11.056575
rfemur -25.042049 9.229380 42.454498
rtibia 46.406101
rfoot -27.334801 2.872290
rtoes -20.969400
lfemur -45.937801 9.543615 -26.163601
ltibia 93.297005
lfoot -20.222401 17.328451
ltoes -8.410770
368
root 13.943159 25.586399 23.393848 9.535215 7.898805 -4.533630
lowerback -8.584530 -0.528021 0.091691
upperback -1.358930 -0.811263 4.188915
thorax 3.453960 -0.416296 4.204350
lowerneck -29.559900 -9.205259 -19.598549
upperneck 31.385551 -11.947124 20.115299
head 16.710300 -4.711575 8.793165
rclavicle 0.000000 -0.000000
rhumerus -53.194801 26.235449 -126.899849
rradius 65.182953
rwrist -33.861748
rhand -45.704399 -37.184250
rfingers 10.687531
rthumb -5.656395 -82.103851
lclavicle 0.000000 -0.000000
lhumerus -67.968750 -30.054901 147.877197
lradius 43.313103
lwrist 19.693501
lhand -21.623699 -33.250198
lfingers 10.687531
lthumb 17.592300 11.227260
rfemur -24.297150 9.450030 43.401299
rtibia 46.104752
rfoot -28.100550 2.646915
rtoes -25.793850
lfemur -47.713799 9.446460 -25.766401
ltibia 92.124748
lfoot -20.892601 17.784901
ltoes -10.712355
369
root 13.954201 25.593449 23.578951 9.403020 7.523445 -4.276380
lowerback -8.534656 -0.357921 -0.167441
upperback -1.210825 -0.568833 4.079940
thorax 3.567720 -0.298908 4.256550
lowerneck -30.354301 -9.401130 -18.817650
upperneck 32.210251 -12.150360 18.938250
head 17.105101 -4.842210 8.192460
rclavicle 0.000000 -0.000000
rhumerus -52.126350 26.257202 -126.676651
rradius 65.314056
rwrist -33.551399
rhand -45.999603 -36.661049
rfingers 10.687531
rthumb -5.941500 -81.575394
lclavicle 0.000000 -0.000000
lhumerus -68.383049 -29.320799 147.367188
lradius 43.287750
lwrist 19.421549
lhand -21.447599 -32.824200
lfingers 10.687531
lthumb 17.762100 11.643555
rfemur -23.155201 9.463050 43.260002
rtibia 45.757202
rfoot -28.943249 2.908575
rtoes -27.071701
lfemur -48.877499 8.892765 -26.357250
ltibia 90.509850
lfoot -21.513750 17.697151
ltoes -5.086665
